# xmcd
#
# Track frame offsets:
#	150
#	7463
#	25199
#	64222
#	97780
#	131056
#	158059
#	196584
#	252193
#
# Disc length: 3829 seconds
#
# Revision: 0
# Processed by: cddbd v1.5.2PL0 Copyright (c) Steve Scherf et al.
# Submitted via: audiograbber 1.83.01
#
DISCID=6f0ef309
DTITLE=Grateful Dead - 94-03-21 Richfield Coliseum, Richfield OH
DYEAR=1900
DGENRE=
TTITLE0=Tuning
TTITLE1=Greatest Story Ever Told
TTITLE2=Bertha
TTITLE3=The Same Thing
TTITLE4=Peggy-O
TTITLE5=Queen Jane Approximately
TTITLE6=West LA Fadeaway
TTITLE7=Eternity
TTITLE8=Tennessee Jed
EXTD=
EXTT0=
EXTT1=
EXTT2=
EXTT3=
EXTT4=
EXTT5=
EXTT6=
EXTT7=
EXTT8=
PLAYORDER=
